<?xml version="1.0" standalone="no"?>
<!DOCTYPE svg PUBLIC "-//W3C//DTD SVG 20010904//EN"
 "http://www.w3.org/TR/2001/REC-SVG-20010904/DTD/svg10.dtd">
<svg version="1.0" xmlns="http://www.w3.org/2000/svg"
 width="446.000000pt" height="446.000000pt" viewBox="0 0 446.000000 446.000000"
 preserveAspectRatio="xMidYMid meet">
<metadata>
Created by potrace 1.11, written by Peter Selinger 2001-2013
</metadata>
<g transform="translate(0.000000,446.000000) scale(0.100000,-0.100000)"
fill="#000000" stroke="none">
<path d="M2050 4454 c-537 -49 -1020 -274 -1395 -649 -342 -342 -552 -758
-632 -1250 -24 -153 -24 -497 0 -650 80 -492 290 -908 632 -1250 342 -342 758
-552 1250 -632 153 -24 497 -24 650 0 492 80 908 290 1250 632 342 342 552
758 632 1250 24 153 24 497 0 650 -80 492 -290 908 -632 1250 -337 337 -743
545 -1220 626 -117 19 -426 33 -535 23z m485 -318 c397 -67 741 -239 1029
-516 314 -302 507 -674 577 -1115 17 -104 17 -446 0 -550 -66 -415 -239 -766
-521 -1059 -299 -310 -656 -498 -1090 -573 -131 -23 -469 -23 -600 0 -434 75
-791 263 -1090 573 -282 293 -454 643 -521 1059 -19 117 -17 456 4 575 92 536
374 981 817 1292 243 171 570 292 885 328 109 12 400 4 510 -14z"/>
<path d="M1768 3590 l4 -150 -123 0 -124 0 -179 90 c-99 50 -181 89 -182 87
-2 -1 2 -117 7 -257 10 -238 6 -567 -8 -756 -5 -74 -4 -83 16 -103 18 -18 32
-21 114 -21 95 0 162 11 179 28 6 6 13 31 15 56 l6 46 733 0 734 0 0 -40 c0
-35 4 -42 27 -51 16 -6 59 -7 107 -3 l81 6 -55 -56 -55 -57 -1077 3 -1077 3 6
-40 c3 -22 6 -40 7 -40 857 0 2667 12 2673 18 11 11 -38 53 -189 164 l-125 92
-6 77 c-4 42 -7 201 -7 353 l0 276 35 19 c54 29 70 52 58 79 -6 12 -67 62
-137 110 l-126 88 -81 -85 -81 -86 -144 0 -144 0 0 78 0 79 38 11 c51 16 80
46 62 67 -18 22 -69 32 -210 45 -69 6 -139 12 -156 14 l-32 4 6 -149 5 -149
-147 0 -146 0 0 79 0 79 48 23 c54 28 62 56 21 76 -23 11 -280 43 -347 43
l-28 0 4 -150z m2 -365 l0 -155 -140 0 -140 0 0 155 0 155 140 0 140 0 0 -155z
m590 0 l0 -155 -145 0 -145 0 0 155 0 155 145 0 145 0 0 -155z m600 0 l0 -155
-155 0 -155 0 0 148 c0 82 3 152 7 155 3 4 73 7 155 7 l148 0 0 -155z m-1190
-385 l0 -170 -140 0 -140 0 0 170 0 170 140 0 140 0 0 -170z m590 0 l0 -170
-145 0 -145 0 0 170 0 170 145 0 145 0 0 -170z m600 0 l0 -170 -155 0 -155 0
0 170 0 170 155 0 155 0 0 -170z"/>
<path d="M1303 2178 c5 -62 6 -229 3 -370 l-6 -257 25 -17 c21 -14 45 -16 145
-12 139 5 160 15 160 80 l0 38 590 0 590 0 0 -39 c0 -59 12 -63 153 -59 97 2
129 7 150 21 l27 17 0 215 0 214 36 17 c19 9 43 28 51 41 15 22 14 25 -8 49
-22 24 -249 174 -263 174 -3 0 -44 -34 -91 -75 l-84 -75 -563 0 -564 -1 -80
37 c-88 41 -264 114 -273 114 -4 0 -3 -51 2 -112z m1507 -293 l0 -185 -587 2
-588 3 -3 183 -2 182 590 0 590 0 0 -185z"/>
<path d="M2490 1568 c-19 -77 -77 -242 -117 -330 l-36 -78 -194 0 -194 0 36
31 c47 41 67 81 67 134 1 60 -27 101 -99 145 -66 40 -196 87 -268 97 -38 5
-45 3 -45 -12 0 -9 8 -29 19 -43 36 -52 62 -114 87 -210 14 -53 32 -107 41
-120 l15 -24 -444 5 c-244 3 -458 8 -476 12 l-34 8 7 -49 c4 -27 8 -50 9 -51
1 -1 42 2 91 7 52 6 647 10 1387 10 779 0 1299 4 1303 9 9 16 -314 291 -342
291 -6 0 -59 -54 -119 -120 l-108 -120 -299 0 -299 0 104 73 c58 41 134 97
169 125 40 33 73 52 90 52 14 0 40 5 58 11 43 15 41 44 -6 68 -32 15 -371 131
-386 131 -3 0 -11 -24 -17 -52z"/>
</g>
</svg>
